<svg width="75.000000" height="72.000000" viewBox="0 0 75 72" fill="none" xmlns="http://www.w3.org/2000/svg" xmlns:xlink="http://www.w3.org/1999/xlink">
	<desc>
			Created with Pixso.
	</desc>
	<defs/>
	<path id="Shape" d="M45.656 65.033L29.656 65.033L29.656 41.21L45.656 41.21L45.656 65.033ZM42.718 44.1339L32.593 44.1339L32.593 62.11L42.718 62.11L42.718 44.1339Z" clip-rule="evenodd" fill="#81B3D2" fill-opacity="1.000000" fill-rule="evenodd"/>
	<path id="Shape" d="M74.847 37.1851L72.771 39.2531L64.94 31.458L64.94 69.076L69.999 69.076L69.999 72L6.12399 72L6.12399 69.076L10.061 69.076L10.061 31.458L2.22899 39.2531L0.151993 37.1851L37.5 0L51.127 13.567L51.127 0L64.939 0L64.939 27.3199L74.847 37.1851ZM54.064 16.4919L62.002 24.394L62.002 2.92395L54.064 2.92395L54.064 16.4919ZM62.002 69.076L12.999 69.076L12.999 28.5341L37.5 4.14905L62.002 28.5341L62.002 69.076Z" clip-rule="evenodd" fill="#81B3D2" fill-opacity="1.000000" fill-rule="evenodd"/>
	<path id="Shape" d="M29.906 27.08C29.906 22.8209 33.375 19.3669 37.656 19.3669C41.935 19.3669 45.406 22.8209 45.406 27.08C45.406 31.3409 41.935 34.793 37.656 34.793C33.376 34.793 29.906 31.3409 29.906 27.08ZM37.656 22.1349C40.4 22.1349 42.625 24.349 42.625 27.08C42.625 29.8119 40.4 32.028 37.656 32.028C34.91 32.028 32.686 29.8119 32.686 27.08C32.686 24.349 34.911 22.1349 37.656 22.1349ZM17.061 41.21L20.061 41.21L20.061 45.1289L17.061 45.1289L17.061 41.21ZM22.999 41.21L25.999 41.21L25.999 45.1289L22.999 45.1289L22.999 41.21ZM17.061 47.1819L20.061 47.1819L20.061 51.101L17.061 51.101L17.061 47.1819ZM22.999 47.1819L25.999 47.1819L25.999 51.101L22.999 51.101L22.999 47.1819ZM48.998 41.21L51.998 41.21L51.998 45.1289L48.998 45.1289L48.998 41.21ZM54.936 41.21L57.936 41.21L57.936 45.1289L54.936 45.1289L54.936 41.21ZM48.998 47.1819L51.998 47.1819L51.998 51.101L48.998 51.101L48.998 47.1819ZM54.936 47.1819L57.936 47.1819L57.936 51.101L54.936 51.101L54.936 47.1819Z" clip-rule="evenodd" fill="#81B3D2" fill-opacity="1.000000" fill-rule="evenodd"/>
</svg>
