<svg width="75.000000" height="70.000000" viewBox="0 0 75 70" fill="none" xmlns="http://www.w3.org/2000/svg" xmlns:xlink="http://www.w3.org/1999/xlink">
	<desc>
			Created with Pixso.
	</desc>
	<defs/>
	<path id="Shape" d="M6.05103 31.5439L69.855 31.5439C69.896 30.925 69.924 30.303 69.924 29.674C69.924 29.28 69.908 28.891 69.892 28.501C69.227 12.657 55.186 0 37.952 0C20.719 0 6.677 12.657 6.013 28.501C5.99603 28.891 5.98102 29.281 5.98102 29.674C5.98102 30.303 6.00903 30.925 6.05103 31.5439ZM66.973 28.501C66.302 14.359 53.543 3.04297 37.952 3.04297C22.361 3.04297 9.604 14.359 8.93103 28.501L66.973 28.501ZM21.957 42.465L16.634 38.406L11.308 42.465L5.12 37.751L6.841 35.2939L11.308 38.6949L16.635 34.6379L21.958 38.6949L27.283 34.6379L32.611 38.6949L37.939 34.6379L43.267 38.6949L48.596 34.6379L53.923 38.6949L59.253 34.639L64.589 38.696L69.063 35.293L70.783 37.752L64.589 42.464L59.253 38.405L53.923 42.465L48.596 38.406L43.267 42.465L37.939 38.406L32.611 42.465L27.283 38.406L21.957 42.465ZM70.854 46.71L5.05103 46.71C2.77704 46.71 0.916016 48.65 0.916016 51.0229L0.916016 54.527C0.916016 56.899 2.77704 58.84 5.05103 58.84L5.98102 58.84L5.98102 59.8929C5.98102 65.429 10.322 69.958 15.629 69.958L60.275 69.958C65.581 69.958 69.923 65.429 69.923 59.8929L69.923 58.84L70.853 58.84C73.127 58.84 74.988 56.899 74.988 54.527L74.988 51.0229C74.988 48.65 73.1281 46.71 70.854 46.71ZM72.071 54.527C72.071 55.215 71.513 55.798 70.853 55.798L5.05103 55.798C4.39099 55.798 3.83405 55.2159 3.83405 54.527L3.83405 51.0229C3.83405 50.335 4.39203 49.752 5.05103 49.752L70.853 49.752C71.513 49.752 72.071 50.334 72.071 51.0229L72.071 54.527ZM60.276 66.915C63.987 66.915 67.006 63.765 67.006 59.894L67.005 59.894L67.005 58.8409L8.89801 58.8409L8.89801 59.894C8.89801 63.765 11.918 66.915 15.629 66.915L60.276 66.915Z" clip-rule="evenodd" fill="#81B3D2" fill-opacity="1.000000" fill-rule="evenodd"/>
	<path id="Oval" d="M37.952 17.29C39.0262 17.29 39.897 16.3811 39.897 15.26C39.897 14.1388 39.0262 13.23 37.952 13.23C36.8778 13.23 36.007 14.1388 36.007 15.26C36.007 16.3811 36.8778 17.29 37.952 17.29Z" fill="#81B3D2" fill-opacity="1.000000" fill-rule="nonzero"/>
	<path id="Oval" d="M30.172 12.26C31.2468 12.26 32.118 11.3511 32.118 10.23C32.118 9.10876 31.2468 8.19995 30.172 8.19995C29.0973 8.19995 28.226 9.10876 28.226 10.23C28.226 11.3511 29.0973 12.26 30.172 12.26Z" fill="#81B3D2" fill-opacity="1.000000" fill-rule="nonzero"/>
	<path id="Oval" d="M45.732 12.26C46.8068 12.26 47.678 11.3511 47.678 10.23C47.678 9.10876 46.8068 8.19995 45.732 8.19995C44.6573 8.19995 43.786 9.10876 43.786 10.23C43.786 11.3511 44.6573 12.26 45.732 12.26Z" fill="#81B3D2" fill-opacity="1.000000" fill-rule="nonzero"/>
</svg>
