<svg width="64.000000" height="77.000000" viewBox="0 0 64 77" fill="none" xmlns="http://www.w3.org/2000/svg" xmlns:xlink="http://www.w3.org/1999/xlink">
	<desc>
			Created with Pixso.
	</desc>
	<defs/>
	<path id="Shape" d="M36.312 23.501L61.097 23.501C62.6829 23.5021 63.9698 24.7842 63.9771 26.37L63.9771 37.692C63.9698 39.2778 62.6829 40.5599 61.097 40.561L60.994 40.561L60.994 77L3.15302 77L3.15302 40.561L2.87903 40.561C1.29358 40.5593 0.00714111 39.2775 0 37.692L0 26.37C0.00714111 24.7845 1.29358 23.5027 2.87903 23.501L25.295 23.501C20.4041 20.7889 12.968 17.39 10.717 12.012C10.3423 11.1169 10.175 10.2365 10.175 9.38733C10.175 4.92542 14.7926 1.33008 18.175 1.03101C20.843 0.795044 22.677 1.92102 23.938 3.05896C28.29 6.98206 30.15 14.726 32.074 20.796C33.5811 14.797 35.149 6.49805 40.718 4.40906C45.028 2.79297 49.558 5.85303 50.72 9.81604C50.7777 10.0922 50.8147 10.3932 50.8147 10.7197C50.8147 13.2705 48.5575 17.3849 36.312 23.501ZM42.413 6.94397C44.516 6.63403 47.395 8.24304 47.668 10.153C47.6871 10.2872 47.6964 10.421 47.6964 10.554C47.6964 13.0499 44.4496 15.2871 42.7743 16.4413C42.7076 16.4873 42.6434 16.5315 42.582 16.574C40.059 18.318 37.6541 19.217 35.295 20.629C36.179 16.939 37.844 7.61804 42.413 6.94397ZM19.531 16.912C17.3324 15.4446 13.0892 12.5507 13.0892 9.25964C13.0892 9.22021 13.0898 9.18066 13.091 9.14099C13.203 5.54602 18.834 2.57104 21.905 5.255C25.761 8.62598 27.618 16.36 29.024 21.812C25.775 20.2729 22.696 19.024 19.531 16.912ZM25.5031 74.026L6.13599 74.026L6.13599 40.561L25.504 40.561L25.504 74.026L25.5031 74.026ZM25.5031 37.524L3.04602 37.524L3.04602 26.538L25.5031 26.538L25.5031 37.524ZM35.66 37.524L35.66 74.027L28.486 74.027L28.486 26.538L35.66 26.538L35.66 37.524ZM58.011 74.026L38.644 74.026L38.644 40.561L58.011 40.561L58.011 74.026ZM60.931 37.524L38.644 37.524L38.644 26.538L60.931 26.538L60.931 37.524Z" clip-rule="evenodd" fill="#81B3D2" fill-opacity="1.000000" fill-rule="evenodd"/>
</svg>
